<svg xmlns="http://www.w3.org/2000/svg" width="1517" height="198" viewBox="0 0 1517 198"><defs><style>.a{fill:none;}.b{fill:#1a5fbd;}</style></defs><title>nbdclogo_web_english_rgb</title><rect class="a" width="1517" height="198"/><path class="b" d="M494.55013,85.15908c7.57961,6.01258,17.65877,15.08058,16.44564,25.85-.88927,7.89485-7.68426,13.2281-13.98974,17.13111-31.31785,20.35845-114.55618,34.91647-212.33162,34.91647s-181.01376-14.558-212.33162-34.91647c-6.30548-3.903-13.10047-9.23626-13.98974-17.13111-1.21312-10.76946,8.866-19.83745,16.44564-25.85C28.36382,97.04838,0,112.88877,0,130.28952c0,24.95228,58.27768,46.707,144.61884,58.18244,41.35416,5.49629,89.13908,8.63741,140.05558,8.63741S383.37584,193.96826,424.73,188.472c86.34116-11.47544,144.61884-33.23017,144.61884-58.18244C569.34883,112.88877,540.985,97.04838,494.55013,85.15908Z"/><path class="b" d="M117.00077,109.15468V7.10938l69.36788,66.78711V13.55861H200.988v95.59706L131.6191,42.36712v66.78756Z"/><path class="b" d="M234.0821,13.55861c12.32622,0,20.06613,1.5768,26.37126,7.45379,5.16064,4.87243,7.59581,11.03554,7.59581,18.91747a20.85336,20.85336,0,0,1-2.8654,11.32375,15.847,15.847,0,0,1-7.16558,6.59125,26.2593,26.2593,0,0,1,12.32413,6.87946c5.16064,5.44676,6.30721,12.0401,6.30721,17.915,0,6.87946-1.72091,12.32622-6.30721,17.19865-7.59581,8.026-19.4918,9.31672-26.80149,9.31672h-23.934V13.55861Zm.14411,41.13265h4.4422c3.58383,0,8.45626-.42814,11.896-3.72585,3.29562-3.15361,3.72585-7.59581,3.72585-10.89143,0-2.86749-.43023-6.30721-3.43973-9.17261-3.29562-3.15361-7.4517-3.58383-11.60778-3.58383h-5.01653Zm0,40.70451h8.8844c4.15817,0,10.74942-.71635,14.47736-3.72585a13.71158,13.71158,0,0,0,4.72832-10.60531,14.32428,14.32428,0,0,0-3.87-10.03307c-4.012-3.87-9.889-4.30018-15.04751-4.30018h-9.17261Z"/><path class="b" d="M310.75235,13.55861c13.33078,0,24.93856,1.4327,35.546,9.31672,11.60778,8.74238,18.34522,22.64332,18.34522,38.55337,0,15.908-6.59334,29.66688-19.20568,38.55337-11.17964,7.88193-21.64294,9.17261-34.97163,9.17261H290.68831V13.55861Zm-5.44467,81.83716h6.30513c7.16767,0,17.05663-.57224,25.36879-6.73535A33.70413,33.70413,0,0,0,350.02416,61.4287c0-12.61234-6.019-22.5013-12.89846-27.51783-8.31425-6.019-18.48933-6.59334-25.51289-6.59334h-6.30513Z"/><path class="b" d="M452.34724,35.91789c-10.60531-9.60284-20.49636-10.6074-25.941-10.6074-20.78248,0-34.82752,15.33572-34.82752,36.40432,0,20.20815,14.61728,35.83,34.96954,35.83,11.46576,0,20.35225-5.8749,25.799-11.03554V103.852A52.16638,52.16638,0,0,1,426.118,111.0176,47.89036,47.89036,0,0,1,392.295,97.833c-11.17964-10.46329-15.33572-22.64541-15.33572-36.1182,0-17.62887,7.30969-29.811,15.33572-37.4068,9.889-9.31672,21.35473-12.46824,34.53931-12.46824,8.74447,0,17.20074,1.57472,25.51289,6.87946Z"/><path class="b" d="M630.907,76.5332V1.78711l50.81055,53.22266V6.51367h10.708V80.83984L641.615,27.6123V76.5332Z"/><path class="b" d="M739.68142,32.334h10.28809V76.5332H739.68142V71.91406a16.9799,16.9799,0,0,1-13.22754,5.98633c-13.64746,0-21.416-11.33789-21.416-23.51563,0-14.38477,9.86816-23.20312,21.52344-23.20312a16.11174,16.11174,0,0,1,13.12012,6.29883ZM715.53591,54.58984c0,7.666,4.8291,14.07227,12.28516,14.07227,6.50391,0,12.49023-4.72656,12.49023-13.96484,0-9.6582-5.98633-14.27734-12.49023-14.27734C720.365,40.41992,715.53591,46.71875,715.53591,54.58984Z"/><path class="b" d="M778.84646,41.78711V76.5332h-10.2832V41.78711h-4.30664V32.334h4.30664V16.17188h10.2832V32.334h7.876v9.45313Z"/><path class="b" d="M804.05154,7.45605a6.45822,6.45822,0,0,1,6.61133,6.61621,6.61377,6.61377,0,0,1-13.22754,0A6.46225,6.46225,0,0,1,804.05154,7.45605Zm5.1416,24.87793V76.5332H798.90505V32.334Z"/><path class="b" d="M871.35134,54.4873c0,13.54-10.28809,23.41309-23.61816,23.41309-13.335,0-23.623-9.873-23.623-23.41309,0-13.64746,10.28809-23.30566,23.623-23.30566C861.06326,31.18164,871.35134,40.83984,871.35134,54.4873Zm-10.498.10254c0-10.07812-6.61621-14.16992-13.12012-14.16992-6.51367,0-13.125,4.0918-13.125,14.16992,0,8.50586,5.03906,14.07227,13.125,14.07227C855.81423,68.66211,860.85329,63.0957,860.85329,54.58984Z"/><path class="b" d="M885.116,32.334h10.2832v4.09668a15.22881,15.22881,0,0,1,11.97266-5.249c8.18359,0,11.65039,4.0918,13.01758,5.98633,1.67969,2.41211,2.72461,5.459,2.72461,12.28027v27.085h-10.2832V51.96777c0-11.23535-4.19922-11.54785-8.08594-11.54785-4.61914,0-9.3457.62988-9.3457,14.90723V76.5332H885.116Z"/><path class="b" d="M973.72439,32.334h10.28809V76.5332H973.72439V71.91406a16.9799,16.9799,0,0,1-13.22754,5.98633c-13.64746,0-21.416-11.33789-21.416-23.51563,0-14.38477,9.86816-23.20312,21.52344-23.20312a16.11174,16.11174,0,0,1,13.12012,6.29883ZM949.57888,54.58984c0,7.666,4.8291,14.07227,12.28516,14.07227,6.50391,0,12.49023-4.72656,12.49023-13.96484,0-9.6582-5.98633-14.27734-12.49023-14.27734C954.408,40.41992,949.57888,46.71875,949.57888,54.58984Z"/><path class="b" d="M1012.57693,0V76.5332h-10.28809V0Z"/><path class="b" d="M1073.05544,6.51367c9.02344,0,14.69727,1.15234,19.31641,5.459,3.7793,3.56445,5.56152,8.08105,5.56152,13.85742a15.27155,15.27155,0,0,1-2.09961,8.291,11.64331,11.64331,0,0,1-5.249,4.8291,19.244,19.244,0,0,1,9.02832,5.03906c3.7793,3.98926,4.61914,8.81836,4.61914,13.12012,0,5.03906-1.25977,9.0332-4.61914,12.59766-5.56152,5.87891-14.27734,6.82617-19.63379,6.82617H1062.45V6.51367Zm.10254,30.127h3.25684c2.62207,0,6.19141-.3125,8.71094-2.72949,2.41211-2.30957,2.72949-5.56152,2.72949-7.97852a8.66093,8.66093,0,0,0-2.51953-6.71875c-2.417-2.30957-5.459-2.62207-8.501-2.62207H1073.158Zm0,29.81445h6.50879c3.04688,0,7.87109-.52734,10.60547-2.72949a10.03889,10.03889,0,0,0,3.46191-7.76855,10.48676,10.48676,0,0,0-2.83691-7.34863c-2.93945-2.83691-7.24121-3.14941-11.02051-3.14941H1073.158Z"/><path class="b" d="M1123.03591,7.45605a6.46225,6.46225,0,0,1,6.61621,6.61621,6.61377,6.61377,0,0,1-13.22754,0A6.45822,6.45822,0,0,1,1123.03591,7.45605ZM1128.1824,32.334V76.5332h-10.28809V32.334Z"/><path class="b" d="M1188.23611,54.4873c0,13.54-10.28809,23.41309-23.61816,23.41309-13.335,0-23.623-9.873-23.623-23.41309,0-13.64746,10.28809-23.30566,23.623-23.30566C1177.948,31.18164,1188.23611,40.83984,1188.23611,54.4873Zm-10.498.10254c0-10.07812-6.61621-14.16992-13.12012-14.16992-6.51367,0-13.125,4.0918-13.125,14.16992,0,8.50586,5.03906,14.07227,13.125,14.07227C1172.699,68.66211,1177.73806,63.0957,1177.73806,54.58984Z"/><path class="b" d="M1219.32009,43.98926a7.3987,7.3987,0,0,0-6.29883-3.7793,4.34065,4.34065,0,0,0-3.14941,1.15723,3.30881,3.30881,0,0,0-.94727,2.30469,2.81861,2.81861,0,0,0,1.47461,2.51953c.625.41992,1.25977.63477,3.46191,1.78711l5.249,2.627a21.095,21.095,0,0,1,6.19141,4.0918,10.90175,10.90175,0,0,1,3.25684,8.18848,14.681,14.681,0,0,1-3.88184,10.07813c-3.4668,3.7793-7.77344,4.93652-12.39258,4.93652a15.19985,15.19985,0,0,1-9.55078-2.83691,17.24037,17.24037,0,0,1-5.66895-8.08105l8.39844-3.99414a11.52418,11.52418,0,0,0,2.417,4.19922,6.8277,6.8277,0,0,0,8.71094.21484,5.2184,5.2184,0,0,0,1.46973-3.4668,4.77417,4.77417,0,0,0-1.36231-3.35937,13.61922,13.61922,0,0,0-4.41406-2.72949l-3.7793-1.78223a21.8699,21.8699,0,0,1-6.084-3.7793,9.62958,9.62958,0,0,1-3.1543-7.45605,13.79962,13.79962,0,0,1,3.67676-9.44824c1.99707-2.09961,5.35645-4.19922,10.81543-4.19922a13.82539,13.82539,0,0,1,8.18359,2.30957,15.07241,15.07241,0,0,1,5.03906,5.459Z"/><path class="b" d="M1277.27419,45.87891c-4.72656-4.61914-9.3457-5.459-12.49023-5.459a13.20908,13.20908,0,0,0-9.76562,3.88672,14.107,14.107,0,0,0-3.7793,10.18066,14.62327,14.62327,0,0,0,3.98926,10.60059,13.3527,13.3527,0,0,0,9.34082,3.57422,17.21489,17.21489,0,0,0,12.70508-5.67383V74.43359c-2.51953,1.57227-6.61133,3.4668-13.4375,3.4668-7.34863,0-12.59766-2.09961-16.79687-6.51367-3.14941-3.252-6.29883-8.501-6.29883-16.582a23.6218,23.6218,0,0,1,6.71875-17.11426c3.4668-3.46191,9.02832-6.50879,17.74414-6.50879a23.74965,23.74965,0,0,1,12.07031,3.14941Z"/><path class="b" d="M1297.54763,7.45605a6.45822,6.45822,0,0,1,6.61133,6.61621,6.61377,6.61377,0,0,1-13.22754,0A6.46225,6.46225,0,0,1,1297.54763,7.45605Zm5.1416,24.87793V76.5332h-10.28809V32.334Z"/><path class="b" d="M1358.4363,66.45508a23.17454,23.17454,0,0,1-7.45117,8.08594,24.35217,24.35217,0,0,1-13.01758,3.35938c-5.87891,0-10.708-1.47461-14.90723-5.67383a23.71241,23.71241,0,0,1-6.50879-16.89941,25.899,25.899,0,0,1,7.03125-18.15918,20.13637,20.13637,0,0,1,14.80469-5.98633,19.04014,19.04014,0,0,1,14.16992,5.77148c5.67383,5.87891,6.19629,14.07227,6.19629,18.69141V56.9043h-31.7041a14.59343,14.59343,0,0,0,3.7793,8.9209A10.495,10.495,0,0,0,1338.7,68.66211a10.85021,10.85021,0,0,0,7.03613-2.207,16.0726,16.0726,0,0,0,4.09668-4.8291Zm-10.18066-17.94922a10.703,10.703,0,0,0-3.14941-5.98633,10.7281,10.7281,0,0,0-14.16992.3125,11.58593,11.58593,0,0,0-3.1543,5.67383Z"/><path class="b" d="M1372.51833,32.334h10.2832v4.09668a15.22881,15.22881,0,0,1,11.97266-5.249c8.18359,0,11.65039,4.0918,13.01758,5.98633,1.67969,2.41211,2.72461,5.459,2.72461,12.28027v27.085h-10.2832V51.96777c0-11.23535-4.19922-11.54785-8.08594-11.54785-4.61914,0-9.3457.62988-9.3457,14.90723V76.5332h-10.2832Z"/><path class="b" d="M1461.96658,45.87891c-4.72168-4.61914-9.34082-5.459-12.49512-5.459a13.21415,13.21415,0,0,0-9.76074,3.88672,14.107,14.107,0,0,0-3.7793,10.18066,14.64351,14.64351,0,0,0,3.98926,10.60059,13.36491,13.36491,0,0,0,9.3457,3.57422,17.20486,17.20486,0,0,0,12.7002-5.67383V74.43359c-2.51953,1.57227-6.61621,3.4668-13.4375,3.4668-7.34863,0-12.59766-2.09961-16.79687-6.51367-3.14941-3.252-6.29883-8.501-6.29883-16.582a23.602,23.602,0,0,1,6.71875-17.11426c3.46191-3.46191,9.02832-6.50879,17.73926-6.50879a23.75426,23.75426,0,0,1,12.0752,3.14941Z"/><path class="b" d="M1516.67849,66.45508a23.23185,23.23185,0,0,1-7.45606,8.08594,24.36386,24.36386,0,0,1-13.01758,3.35938c-5.87891,0-10.708-1.47461-14.90723-5.67383a23.71241,23.71241,0,0,1-6.50879-16.89941A25.90321,25.90321,0,0,1,1481.825,37.168a20.11687,20.11687,0,0,1,14.7998-5.98633,19.05254,19.05254,0,0,1,14.17481,5.77148c5.66406,5.87891,6.19141,14.07227,6.19141,18.69141V56.9043h-31.7041a14.62152,14.62152,0,0,0,3.7793,8.9209,10.512,10.512,0,0,0,7.876,2.83691,10.84553,10.84553,0,0,0,7.03125-2.207,15.91411,15.91411,0,0,0,4.0918-4.8291Zm-10.18555-17.94922a10.67319,10.67319,0,0,0-3.14941-5.98633,10.73458,10.73458,0,0,0-14.1748.3125,11.61081,11.61081,0,0,0-3.14453,5.67383Z"/><path class="b" d="M645.60427,116.51367c9.76563,0,18.2666,1.04492,26.03516,6.82129,8.50586,6.40137,13.4375,16.58691,13.4375,28.2373,0,11.65527-4.8291,21.7334-14.06738,28.24219-8.18848,5.77148-15.85449,6.71875-25.61523,6.71875H630.907V116.51367ZM641.615,176.45508h4.61914c5.249,0,12.49512-.41992,18.5791-4.93164a24.68562,24.68562,0,0,0,9.55566-19.95117c0-9.23828-4.40918-16.47949-9.44824-20.15625-6.08887-4.4043-13.54492-4.82422-18.68652-4.82422H641.615Z"/><path class="b" d="M731.073,142.334h10.28809V186.5332H731.073v-4.61914a16.97382,16.97382,0,0,1-13.22754,5.98633c-13.64746,0-21.416-11.33789-21.416-23.51562,0-14.38477,9.86816-23.20312,21.51855-23.20312a16.11419,16.11419,0,0,1,13.125,6.29883Zm-24.14551,22.25586c0,7.666,4.8291,14.07227,12.28027,14.07227,6.51367,0,12.49512-4.72656,12.49512-13.96484,0-9.6582-5.98145-14.27734-12.49512-14.27734C711.75661,150.41992,706.92751,156.71875,706.92751,164.58984Z"/><path class="b" d="M769.18826,151.78711V186.5332h-10.2832V151.78711h-4.30664V142.334h4.30664V126.17188h10.2832V142.334h7.876v9.45313Z"/><path class="b" d="M821.58083,142.334h10.28809V186.5332H821.58083v-4.61914a16.97382,16.97382,0,0,1-13.22754,5.98633c-13.64746,0-21.416-11.33789-21.416-23.51562,0-14.38477,9.86816-23.20312,21.51855-23.20312a16.11419,16.11419,0,0,1,13.125,6.29883Zm-24.14551,22.25586c0,7.666,4.8291,14.07227,12.28027,14.07227,6.51367,0,12.49512-4.72656,12.49512-13.96484,0-9.6582-5.98145-14.27734-12.49512-14.27734C802.26443,150.41992,797.43533,156.71875,797.43533,164.58984Z"/><path class="b" d="M857.28884,147.48047a16.11174,16.11174,0,0,1,13.12012-6.29883c11.65527,0,21.52344,8.81836,21.52344,23.20313,0,12.17773-7.76855,23.51563-21.416,23.51563a16.9799,16.9799,0,0,1-13.22754-5.98633v4.61914H847.00076V110h10.28809Zm-.62988,17.2168c0,9.23828,5.98633,13.96484,12.49023,13.96484,7.45605,0,12.28516-6.40625,12.28516-14.07227,0-7.87109-4.8291-14.16992-12.28516-14.16992C862.64529,150.41992,856.659,155.03906,856.659,164.69727Z"/><path class="b" d="M940.23318,142.334h10.28809V186.5332H940.23318v-4.61914a16.97382,16.97382,0,0,1-13.22754,5.98633c-13.64746,0-21.416-11.33789-21.416-23.51562,0-14.38477,9.86816-23.20312,21.51855-23.20312a16.11419,16.11419,0,0,1,13.125,6.29883Zm-24.14551,22.25586c0,7.666,4.8291,14.07227,12.28027,14.07227,6.51367,0,12.49512-4.72656,12.49512-13.96484,0-9.6582-5.98145-14.27734-12.49512-14.27734C920.91677,150.41992,916.08767,156.71875,916.08767,164.58984Z"/><path class="b" d="M986.01443,153.98926a7.40551,7.40551,0,0,0-6.29883-3.7793,4.34065,4.34065,0,0,0-3.14941,1.15723,3.3269,3.3269,0,0,0-.94238,2.30469,2.81909,2.81909,0,0,0,1.46484,2.51953c.63477.41992,1.25977.63477,3.4668,1.78711l5.249,2.627a21.11946,21.11946,0,0,1,6.19629,4.0918,10.91525,10.91525,0,0,1,3.252,8.18848,14.66225,14.66225,0,0,1-3.88672,10.07813c-3.46191,3.7793-7.76367,4.93652-12.38281,4.93652a15.20474,15.20474,0,0,1-9.55566-2.83691,17.24037,17.24037,0,0,1-5.66895-8.08105l8.39844-3.99414a11.65761,11.65761,0,0,0,2.41211,4.19922,6.29222,6.29222,0,0,0,4.5166,1.67969,6.19259,6.19259,0,0,0,4.19922-1.46484,5.2184,5.2184,0,0,0,1.46973-3.4668,4.75868,4.75868,0,0,0-1.36719-3.35937,13.57448,13.57448,0,0,0-4.4043-2.72949l-3.7793-1.78223a21.84768,21.84768,0,0,1-6.09375-3.7793,9.6531,9.6531,0,0,1-3.14453-7.45605,13.79547,13.79547,0,0,1,3.67188-9.44824c1.99219-2.09961,5.35156-4.19922,10.81055-4.19922a13.83574,13.83574,0,0,1,8.19336,2.30957,15.1987,15.1987,0,0,1,5.03906,5.459Z"/><path class="b" d="M1049.325,176.45508a23.23185,23.23185,0,0,1-7.45605,8.08594,24.36387,24.36387,0,0,1-13.01758,3.35938c-5.87891,0-10.708-1.47461-14.90723-5.67383a23.71241,23.71241,0,0,1-6.50879-16.89941,25.90321,25.90321,0,0,1,7.03613-18.15918,20.11687,20.11687,0,0,1,14.7998-5.98633,19.05254,19.05254,0,0,1,14.1748,5.77148c5.66406,5.87891,6.19141,14.07227,6.19141,18.69141v1.25977h-31.7041a14.62151,14.62151,0,0,0,3.7793,8.9209,10.512,10.512,0,0,0,7.876,2.83691,10.84553,10.84553,0,0,0,7.03125-2.207,15.9141,15.9141,0,0,0,4.0918-4.8291Zm-10.18555-17.94922a10.67318,10.67318,0,0,0-3.14941-5.98633,10.73458,10.73458,0,0,0-14.1748.3125,11.6108,11.6108,0,0,0-3.14453,5.67383Z"/><path class="b" d="M1149.06618,132.89063c-7.76855-7.03613-15.01465-7.77344-18.999-7.77344-15.22461,0-25.5127,11.23535-25.5127,26.66992,0,14.7998,10.708,26.24023,25.61523,26.24023,8.39844,0,14.90723-4.30176,18.89648-8.08105v12.7002a38.22383,38.22383,0,0,1-19.21387,5.25391,35.0999,35.0999,0,0,1-24.77539-9.6582c-8.18359-7.666-11.23047-16.5918-11.23047-26.45508,0-12.915,5.35156-21.83594,11.23047-27.40234,7.24609-6.82617,15.64453-9.13086,25.30273-9.13086,6.40625,0,12.59766,1.15234,18.68652,5.03906Z"/><path class="b" d="M1204.198,176.45508a23.23184,23.23184,0,0,1-7.45605,8.08594,24.36386,24.36386,0,0,1-13.01758,3.35938c-5.87891,0-10.708-1.47461-14.90723-5.67383a23.71241,23.71241,0,0,1-6.50879-16.89941,25.90321,25.90321,0,0,1,7.03613-18.15918,20.11687,20.11687,0,0,1,14.7998-5.98633,19.05254,19.05254,0,0,1,14.17481,5.77148c5.66406,5.87891,6.19141,14.07227,6.19141,18.69141v1.25977h-31.7041a14.62151,14.62151,0,0,0,3.7793,8.9209,10.512,10.512,0,0,0,7.876,2.83691,10.84553,10.84553,0,0,0,7.03125-2.207,15.91411,15.91411,0,0,0,4.0918-4.8291Zm-10.18555-17.94922a10.67319,10.67319,0,0,0-3.14941-5.98633,10.73458,10.73458,0,0,0-14.1748.3125,11.6108,11.6108,0,0,0-3.14453,5.67383Z"/><path class="b" d="M1218.27029,142.334h10.293v4.09668a15.20058,15.20058,0,0,1,11.96289-5.249c8.19336,0,11.65527,4.0918,13.01758,5.98633,1.67969,2.41211,2.73438,5.459,2.73438,12.28027v27.085h-10.293V161.96777c0-11.23535-4.19922-11.54785-8.08105-11.54785-4.61914,0-9.34082.62988-9.34082,14.90723V186.5332h-10.293Z"/><path class="b" d="M1284.10037,151.78711V186.5332h-10.2832V151.78711h-4.30664V142.334h4.30664V126.17188h10.2832V142.334h7.876v9.45313Z"/><path class="b" d="M1343.739,176.45508a23.23185,23.23185,0,0,1-7.45606,8.08594,24.36386,24.36386,0,0,1-13.01758,3.35938c-5.87891,0-10.708-1.47461-14.90723-5.67383a23.71241,23.71241,0,0,1-6.50879-16.89941,25.90321,25.90321,0,0,1,7.03613-18.15918,20.11687,20.11687,0,0,1,14.79981-5.98633,19.05254,19.05254,0,0,1,14.1748,5.77148c5.66406,5.87891,6.19141,14.07227,6.19141,18.69141v1.25977h-31.7041a14.62152,14.62152,0,0,0,3.7793,8.9209,10.512,10.512,0,0,0,7.876,2.83691,10.84553,10.84553,0,0,0,7.03125-2.207,15.91411,15.91411,0,0,0,4.0918-4.8291Zm-10.18555-17.94922a10.67319,10.67319,0,0,0-3.14941-5.98633,10.73458,10.73458,0,0,0-14.17481.3125,11.6108,11.6108,0,0,0-3.14453,5.67383Z"/><path class="b" d="M1355.50662,142.334h10.28809v3.99414a17.87807,17.87807,0,0,1,4.30176-3.67676,11.87567,11.87567,0,0,1,6.29883-1.46973,15.26449,15.26449,0,0,1,8.08594,2.09961l-4.19922,9.3457a9.28078,9.28078,0,0,0-5.249-1.57715,8.01361,8.01361,0,0,0-6.40137,2.417c-2.83691,3.042-2.83691,7.24121-2.83691,10.18066V186.5332h-10.28809Z"/></svg>