<?xml version="1.0" encoding="utf-8"?>
<!-- Generator: Adobe Illustrator 24.2.1, SVG Export Plug-In . SVG Version: 6.00 Build 0)  -->
<svg version="1.1" id="レイヤー_1" xmlns="http://www.w3.org/2000/svg" xmlns:xlink="http://www.w3.org/1999/xlink" x="0px"
	 y="0px" viewBox="0 0 524.4 113.4" style="enable-background:new 0 0 524.4 113.4;" xml:space="preserve">
<style type="text/css">
	.st0{fill:#3B9DD8;}
	.st1{fill:#FFFFFF;}
	.st2{fill:#DE2C6C;}
	.st3{display:none;}
	.st4{display:inline;fill:#DE2C6C;}
</style>
<g id="Layer_2">
	<g>
		<path class="st0" d="M28,5.3v3.3c0.2,0,0.9,0,1.8-0.1c1-0.2,1.7,1.1,1.6,1.8c-0.1,0.8-0.9,2.4-1.1,4.5c-0.1,0.6,0.1,0.8,0.3,0.8
			c0.7,0.1,1.4,0.2,2.1,0.4c0.1,0,0.4-0.1,0.5-0.6c0.6-2,0.5-3.8,0.7-4.6c0.2-0.7,1.2-1.6,2.1-1c0.9,0.5,1.7,0.8,1.7,0.8
			s0.8,0.4,1.8,0.6c1,0.2,1.1,1.6,0.8,2.2c-0.4,0.7-1.7,1.9-2.8,3.7c-0.3,0.5-0.2,0.8-0.1,0.8c0.6,0.4,1.2,0.8,1.8,1.2
			c0.1,0,0.4,0,0.7-0.4c1.3-1.6,1.9-3.3,2.4-4c0.4-0.6,1.7-1,2.3-0.1c0.6,0.8,1.2,1.4,1.2,1.4s0.6,0.6,1.4,1.2
			c0.8,0.6,0.4,1.9-0.1,2.4c-0.7,0.5-2.3,1-4,2.4c-0.5,0.4-0.4,0.6-0.4,0.7c0.4,0.6,0.8,1.2,1.2,1.8c0.1,0.1,0.3,0.2,0.8-0.1
			c1.9-1,3-2.3,3.7-2.8c0.6-0.4,2-0.2,2.2,0.8s0.6,1.8,0.6,1.8s0.3,0.8,0.8,1.7c0.5,0.9-0.3,2-1,2.1c-0.8,0.2-2.5,0.1-4.6,0.7
			c-0.5,0.2-0.6,0.4-0.6,0.5c0.2,0.7,0.3,1.4,0.4,2.1c0,0.1,0.2,0.3,0.8,0.2c2.1-0.2,3.7-1,4.5-1.1c0.7-0.1,1.9,0.5,1.8,1.6
			c-0.2,1-0.1,1.9-0.1,1.9s0,0.8,0.1,1.9s-1.1,1.7-1.8,1.6c-0.8-0.1-2.4-0.9-4.5-1.1c-0.6-0.1-0.8,0.1-0.8,0.3
			c-0.1,0.7-0.2,1.4-0.4,2.1c0,0.1,0.1,0.4,0.6,0.5c2,0.6,3.8,0.5,4.6,0.7c0.7,0.2,1.6,1.2,1,2.1c-0.5,0.9-0.8,1.7-0.8,1.7
			s-0.4,0.8-0.6,1.8s-1.6,1.1-2.2,0.8c-0.7-0.4-1.8-1.7-3.7-2.8c-0.5-0.3-0.8-0.2-0.8-0.1c-0.4,0.6-0.8,1.2-1.2,1.8
			c0,0.1,0,0.4,0.4,0.7c1.7,1.3,3.3,1.9,4,2.4c0.6,0.4,1,1.7,0.1,2.3c-0.8,0.6-1.4,1.2-1.4,1.2s-0.6,0.6-1.2,1.4
			c-0.6,0.8-1.9,0.4-2.3-0.1c-0.5-0.7-1-2.3-2.4-4c-0.4-0.5-0.6-0.4-0.7-0.4c-0.6,0.4-1.2,0.8-1.8,1.2c-0.1,0.1-0.2,0.3,0.1,0.8
			c1,1.9,2.3,3,2.8,3.7c0.4,0.6,0.2,2-0.8,2.2s-1.8,0.6-1.8,0.6s-0.8,0.3-1.7,0.8s-2-0.3-2.1-1c-0.2-0.8-0.1-2.5-0.7-4.6
			c-0.2-0.5-0.4-0.6-0.5-0.6c-0.7,0.2-1.4,0.3-2.1,0.4c-0.1,0-0.3,0.2-0.3,0.8c0.2,2.1,1,3.7,1.1,4.5c0.1,0.7-0.5,1.9-1.6,1.8
			c-0.9-0.1-1.7-0.1-1.8-0.1v3.6h26.8L65.4,5.3H28z"/>
		<path class="st1" d="M29.8,59.3c1,0.2,1.7-1.1,1.6-1.8c-0.1-0.8-0.9-2.4-1.1-4.5c-0.1-0.6,0.1-0.8,0.3-0.8
			c0.7-0.1,1.4-0.2,2.1-0.4c0.1,0,0.4,0.1,0.5,0.6c0.6,2,0.5,3.8,0.7,4.6c0.2,0.7,1.2,1.6,2.1,1c0.9-0.5,1.7-0.8,1.7-0.8
			s0.8-0.4,1.8-0.6c1-0.2,1.1-1.6,0.8-2.2c-0.4-0.7-1.7-1.8-2.8-3.7c-0.3-0.5-0.2-0.8-0.1-0.8c0.6-0.4,1.2-0.8,1.8-1.2
			c0.1,0,0.4,0,0.7,0.4c1.3,1.7,1.9,3.3,2.4,4c0.4,0.6,1.7,1,2.3,0.1c0.6-0.8,1.2-1.4,1.2-1.4s0.6-0.6,1.4-1.2
			c0.8-0.6,0.4-1.9-0.1-2.3c-0.7-0.5-2.3-1-4-2.4c-0.5-0.4-0.4-0.6-0.4-0.7c0.4-0.6,0.8-1.2,1.2-1.8c0.1-0.1,0.3-0.2,0.8,0.1
			c1.9,1,3,2.3,3.7,2.8c0.6,0.4,2,0.2,2.2-0.8s0.6-1.8,0.6-1.8s0.3-0.8,0.8-1.7s-0.3-2-1-2.1c-0.8-0.2-2.5-0.1-4.6-0.7
			c-0.5-0.2-0.6-0.4-0.6-0.5c0.2-0.7,0.3-1.4,0.4-2.1c0-0.1,0.2-0.3,0.8-0.3c2.1,0.2,3.7,1,4.5,1.1c0.7,0.1,1.9-0.5,1.8-1.6
			s-0.1-1.9-0.1-1.9s0-0.8,0.1-1.9s-1.1-1.7-1.8-1.6c-0.8,0.1-2.4,0.9-4.5,1.1c-0.6,0.1-0.8-0.1-0.8-0.3c-0.1-0.7-0.2-1.4-0.4-2.1
			c0-0.1,0.1-0.4,0.6-0.5c2-0.6,3.8-0.5,4.6-0.7c0.7-0.2,1.6-1.2,1-2.1c-0.5-0.9-0.8-1.7-0.8-1.7s-0.4-0.8-0.6-1.8
			c-0.2-1-1.6-1.1-2.2-0.8c-0.7,0.4-1.8,1.7-3.7,2.8c-0.5,0.3-0.8,0.2-0.8,0.1c-0.4-0.6-0.8-1.2-1.2-1.8c0-0.1,0-0.4,0.4-0.7
			c1.7-1.3,3.3-1.9,4-2.4c0.6-0.4,1-1.7,0.1-2.4S45.8,16,45.8,16s-0.6-0.6-1.2-1.4s-1.9-0.4-2.3,0.1c-0.5,0.7-1,2.3-2.4,4
			c-0.4,0.5-0.6,0.4-0.7,0.4c-0.6-0.4-1.2-0.8-1.8-1.2c-0.1-0.1-0.2-0.3,0.1-0.8c1-1.9,2.3-3,2.8-3.7c0.4-0.6,0.2-2-0.8-2.2
			s-1.8-0.6-1.8-0.6s-0.8-0.3-1.7-0.8s-2,0.4-2.1,1c-0.2,0.8-0.1,2.5-0.7,4.6c-0.2,0.5-0.4,0.6-0.5,0.6c-0.7-0.2-1.4-0.3-2.1-0.4
			c-0.1,0-0.3-0.2-0.3-0.8c0.2-2.1,1-3.7,1.1-4.5c0.1-0.7-0.5-1.9-1.6-1.8c-0.9,0.1-1.7,0.1-1.8,0.1v50.5
			C28.2,59.2,28.9,59.1,29.8,59.3z"/>
	</g>
	<path class="st2" d="M26.2,59.4c-1,0.2-1.7-1.1-1.6-1.8c0.1-0.8,0.9-2.4,1.1-4.5c0.1-0.6-0.1-0.8-0.3-0.8c-0.7-0.1-1.4-0.2-2.1-0.4
		c-0.1,0-0.4,0.1-0.5,0.6c-0.6,2-0.5,3.8-0.7,4.6c-0.2,0.7-1.2,1.6-2.1,1s-1.7-0.8-1.7-0.8s-0.8-0.4-1.8-0.6c-1-0.2-1.1-1.6-0.8-2.2
		c0.4-0.7,1.7-1.8,2.8-3.7c0.3-0.5,0.2-0.8,0.1-0.8c-0.6-0.4-1.2-0.8-1.8-1.2c-0.1,0-0.4,0-0.7,0.4c-1.3,1.7-1.9,3.3-2.4,4
		c-0.4,0.6-1.7,1-2.4,0.1c-0.6-0.8-1.2-1.4-1.2-1.4s-0.6-0.6-1.4-1.2s-0.4-1.9,0.1-2.3c0.7-0.5,2.3-1,4-2.4c0.4-0.4,0.4-0.6,0.4-0.7
		c-0.4-0.6-0.8-1.2-1.2-1.8c-0.1-0.1-0.3-0.2-0.8,0.1c-1.9,1-3,2.3-3.7,2.8c-0.6,0.4-2,0.2-2.2-0.8c-0.2-1-0.6-1.8-0.6-1.8
		s-0.3-0.8-0.8-1.7s0.3-2,1-2.1c0.8-0.2,2.5-0.1,4.6-0.7c0.5-0.2,0.6-0.4,0.6-0.5c-0.2-0.7-0.3-1.4-0.4-2.1
		c-0.1-0.1-0.2-0.3-0.8-0.3c-2.1,0.2-3.7,1-4.5,1.1c-0.7,0.1-1.9-0.5-1.8-1.6c0.2-1,0.1-1.9,0.1-1.9s0-0.8-0.1-1.9
		c-0.2-1,1.1-1.7,1.8-1.6c0.8,0.1,2.4,0.9,4.5,1.1c0.6,0.1,0.8-0.1,0.8-0.3c0.1-0.7,0.2-1.4,0.4-2.1c0-0.1-0.1-0.4-0.6-0.5
		c-2-0.6-3.8-0.5-4.6-0.7c-0.7-0.2-1.6-1.2-1-2.1c0.5-0.9,0.8-1.7,0.8-1.7s0.4-0.8,0.6-1.8s1.6-1.1,2.2-0.8c0.7,0.4,1.8,1.7,3.7,2.8
		c0.5,0.3,0.8,0.2,0.8,0.1c0.4-0.6,0.8-1.2,1.2-1.8c0-0.1,0.1-0.4-0.4-0.7c-1.6-1.3-3.3-1.9-4-2.4c-0.6-0.4-1-1.7-0.1-2.4
		s1.4-1.2,1.4-1.2s0.6-0.6,1.2-1.4s1.9-0.4,2.3,0.1c0.5,0.7,1.1,2.3,2.4,4c0.4,0.5,0.6,0.4,0.7,0.4c0.6-0.4,1.2-0.8,1.8-1.2
		c0.1-0.1,0.2-0.3-0.1-0.8c-1-1.9-2.3-3-2.8-3.7c-0.4-0.6-0.2-2,0.8-2.2s1.8-0.6,1.8-0.6s0.8-0.3,1.7-0.8c0.9-0.5,2,0.4,2.1,1
		c0.2,0.8,0.1,2.5,0.7,4.6c0.2,0.5,0.4,0.6,0.5,0.6c0.7-0.2,1.4-0.3,2.1-0.4c0.1,0,0.3-0.2,0.3-0.8c-0.2-2.1-1-3.7-1.1-4.5
		c-0.1-0.7,0.5-1.9,1.6-1.8c0.9,0.1,1.7,0.1,1.8,0.1v50.5C27.8,59.3,27.1,59.2,26.2,59.4z"/>
	<g>
		<g class="st3">
			<path class="st4" d="M275.8,54.6l7.1-40.4h9.4c6.2,0,10.2,3.7,8.8,11.8l-3,17c-1.4,8-5.5,11.6-11.8,11.6L275.8,54.6z M286.3,50
				c3.1,0,5.9-2.1,6.8-7.4l2.9-16.5c0.8-5.2-1.1-7.4-4.2-7.4h-4.8L281.6,50L286.3,50z"/>
			<path class="st4" d="M302.2,45.9l2.1-11.9c1.1-6,4.2-9.1,8.6-9.1c2.7,0,4.8,1.5,5.3,3.8l0.6-3.2h4.8l-5.2,29.2h-4.8l0.6-2.9
				c-1.3,2.3-3.3,3.5-6,3.5C303.8,55.2,301.1,52,302.2,45.9z M315.2,45.8l2-11.3c0.7-3.4-0.6-5.2-3.1-5.2s-4.4,1.8-5,5.2l-2,11.4
				c-0.6,3.3,0.7,5.1,3.3,5.1C312.7,50.9,314.6,49.1,315.2,45.8z"/>
			<path class="st4" d="M335.6,54.3c-1.3,0.5-2.7,0.9-4.5,0.9c-4,0-5.9-2.3-5.1-7l3.3-18.8h-3.2l0.7-3.9c3.9,0,5.2-0.2,7-9.5h3.1
				l-1.7,9.5h5.4l-0.7,3.9h-5.7l-3.1,18c-0.5,2.6,0.4,3.4,1.8,3.4c1.3,0,2.6-0.5,3.7-1.2L335.6,54.3z"/>
			<path class="st4" d="M339.8,45.9l2.1-11.9c1.1-6,4.2-9.1,8.6-9.1c2.7,0,4.8,1.5,5.3,3.8l0.6-3.2h4.8L356,54.6h-4.8l0.6-2.9
				c-1.3,2.3-3.3,3.5-6,3.5C341.4,55.2,338.7,52,339.8,45.9z M352.8,45.8l2-11.3c0.7-3.4-0.6-5.2-3.1-5.2s-4.4,1.8-5,5.2l-2,11.4
				c-0.6,3.3,0.7,5.1,3.3,5.1C350.3,50.9,352.2,49.1,352.8,45.8z"/>
			<path class="st4" d="M375.6,54.6h-5l7.1-40.4h9.6c5.7,0,9.2,3,8.1,9.2l-1.3,7.2c-1,5.9-4.5,8.9-10.1,8.9h-5.9L375.6,54.6z
				 M389.3,30.2l1.1-6.4c0.6-3.5-1.1-5-4.2-5h-4.3L379,35.3h4.4C386.5,35.3,388.7,33.7,389.3,30.2z"/>
			<path class="st4" d="M395.3,45.6l2-11.3c1.1-6.4,5-9.5,10-9.5c5.1,0,8.9,3.1,7.7,9.6l-2,11.4c-1.1,6.3-4.9,9.3-9.9,9.3
				S394.1,52.2,395.3,45.6z M408.2,45.8l2-11.4c0.6-3.3-0.6-5.2-3.2-5.2c-2.4,0-4.3,1.8-4.9,5.2l-2,11.3c-0.6,3.3,0.6,5.1,3.1,5.1
				C405.7,50.9,407.6,49.1,408.2,45.8z"/>
			<path class="st4" d="M421.4,25.5h4.8l-0.6,3.6c1.6-3,4-4.2,8-4.2l-1.1,5.5c-0.5-0.3-1.8-0.5-2.3-0.5c-3.9,0-5.3,2.9-6.3,8.5
				l-2.8,16.2h-4.8L421.4,25.5z"/>
			<path class="st4" d="M443.3,54.3c-1.3,0.5-2.7,0.9-4.5,0.9c-4,0-5.9-2.3-5.1-7l3.3-18.8h-3.2l0.7-3.9c3.9,0,5.2-0.2,7-9.5h3.1
				l-1.7,9.5h5.4l-0.7,3.9h-5.7l-3.1,18c-0.5,2.6,0.4,3.4,1.8,3.4c1.3,0,2.6-0.5,3.7-1.2L443.3,54.3z"/>
			<path class="st4" d="M447.5,45.9l2.1-11.9c1.1-6,4.2-9.1,8.6-9.1c2.7,0,4.8,1.5,5.3,3.8l0.6-3.2h4.8l-5.2,29.2h-4.8l0.6-2.9
				c-1.3,2.3-3.3,3.5-6,3.5C449.1,55.2,446.4,52,447.5,45.9z M460.5,45.8l2-11.3c0.7-3.4-0.6-5.2-3.1-5.2s-4.4,1.8-5,5.2l-2,11.4
				c-0.6,3.3,0.7,5.1,3.3,5.1C458,50.9,459.9,49.1,460.5,45.8z"/>
			<path class="st4" d="M473.9,54.6h-2.2c-2,0-2.4-0.8-2.1-2.8l6.6-37.6h4.8L473.9,54.6z"/>
		</g>
		<g>
			<path class="st2" d="M307.1,30.3l-0.8,4.4h-12.5l-0.3,1.2c-2.5,10.3-6.8,16.2-19.2,18.8l-1.1-4.3c7.6-1.1,13.5-3.4,15.8-14.5
				l0.2-1.2h-14.9l0.8-4.4H307.1z M302.3,19.4l-0.8,4.3h-22.8l0.8-4.3H302.3z M303.3,23.7c0.4-2.7,0.4-4,0.2-6.8l2.9-0.5
				c0.2,2.3,0.2,4.4,0,6.7L303.3,23.7z M308.2,22.7c0.2-2.4,0.1-4.9,0-6.5l2.7-0.6c0.1,1.1,0.3,2.5,0.2,6.5L308.2,22.7z"/>
			<path class="st2" d="M343.3,33.2l-0.9,5.1h-34l0.9-5.1H343.3z"/>
			<path class="st2" d="M358.2,32.5c1.4,0.7,4.5,2.3,7.8,6c4.2-4.8,5.8-9.1,6.5-11.1h-13.3c-5.2,6.4-9.8,9.1-11.9,10.3l-2.2-3.6
				c7.3-3.9,11.8-9,15.7-16.6l4.5,1c-0.7,1.2-1.3,2.2-2.8,4.5h16.3c-2.2,6.6-8.9,26.2-32.5,32l-1.7-4.2c2.9-0.5,9.3-1.7,17.8-8.7
				c-3.2-3.7-6.1-5.4-7.7-6.4L358.2,32.5z"/>
			<path class="st2" d="M376.4,49.2c6.2-5.7,7.9-13.3,8.5-15.9l4.1,0.5c-2.5,10.1-5.1,14.6-9.5,19.1L376.4,49.2z M400.6,18.4
				l-1.2,6.7h12.4l-0.8,4.5h-12.4l-4.4,24.9h-4.4l4.4-24.9H381l0.8-4.5H395l1.2-6.7H400.6z M406.9,33c-0.3,2.6-1,9.3,2.9,16.7
				l-4.6,3.1c-3.2-6.8-3.2-13.8-2.7-19.2L406.9,33z M415.6,20.1c-0.4,2.5-2.6,4.4-4.8,4.4c-2.2,0-3.6-2-3.2-4.4
				c0.4-2.5,2.6-4.4,4.8-4.4S416,17.7,415.6,20.1z M409.8,20.1c-0.2,1.1,0.4,2,1.5,2c1,0,2-0.9,2.2-2c0.2-1.1-0.5-2-1.5-2
				C411,18.1,410,19,409.8,20.1z"/>
			<path class="st2" d="M448.7,33.2l-0.9,5.1h-34l0.9-5.1H448.7z"/>
			<path class="st2" d="M463.7,32.5c1.4,0.7,4.5,2.3,7.8,6c4.2-4.8,5.8-9.1,6.5-11.1h-13.3c-5.2,6.4-9.8,9.1-11.9,10.3l-2.2-3.6
				c7.3-3.9,11.8-9,15.7-16.6l4.5,1c-0.7,1.2-1.3,2.2-2.8,4.5h16.3c-2.2,6.6-8.9,26.2-32.5,32l-1.7-4.2c2.9-0.5,9.3-1.7,17.8-8.7
				c-3.2-3.7-6.1-5.4-7.7-6.4L463.7,32.5z"/>
			<path class="st2" d="M495.7,30.1c-3.1,17.8-9.5,23.3-11.8,25.2l-2.7-3.7c2-1.6,7.2-5.4,9.9-20.6l2.1-11.8h4.4L495.7,30.1z
				 M502.8,48.3c9.2-2.3,13.3-14.3,14.1-16.4l3.6,1.9c-6.8,18.7-19.2,19.8-22.9,20.2l6.3-35.9h4.3L502.8,48.3z"/>
		</g>
		<g>
			<g>
				<path d="M93.9,39.7l-0.6,3c-1.5,8.6-6.6,12.6-13.3,12.6c-7,0-12.2-4-10.5-13.5l2.9-16.6c1.5-8.6,6.3-12.7,13.3-12.7
					c6.7,0,12.2,4.1,10.6,13.1l-0.5,2.6l-7.3,0.5l0.4-2.5c0.7-3.7-0.7-5.3-3.1-5.3c-2.4,0-4.3,1.5-4.9,5.3l-2.7,15.2
					c-0.7,3.9,0.7,5.4,3.1,5.4c2.4,0,4.2-1.5,4.9-5.4l0.4-2.4L93.9,39.7z"/>
				<path d="M126.3,26l-2.9,16.7c-1.5,8.6-6.9,12.7-14,12.7c-7,0-12.8-4-11.2-13.5l2.9-16.6c1.5-8.6,7-12.7,14.1-12.7
					C122.1,12.7,127.9,16.7,126.3,26z M109.6,26.3l-2.8,15.2c-0.7,3.9,0.7,5.4,3.1,5.4c2.4,0,4.3-1.5,4.9-5.4l2.7-15.2
					c0.7-3.7-0.7-5.3-3.1-5.3C112.2,21.1,110.2,22.6,109.6,26.3z"/>
				<path d="M150,13.3h8.1l-15.4,41.5h-10.2l-1.1-41.5h9.4l-0.2,27L150,13.3z"/>
				<path d="M171.1,13.3l-7.3,41.5h-8.6l7.3-41.5L171.1,13.3z"/>
				<path d="M170.3,54.8l7.3-41.5h11.2c7,0,12.2,3.7,10.5,12.9l-2.9,16.3c-1.5,8.6-6.1,12.3-13.1,12.3
					C183.3,54.8,170.3,54.8,170.3,54.8z M183.1,46.7c2.4,0,4.3-1.5,4.9-5.4l2.6-14.7c0.6-3.7-0.7-5.3-3.1-5.3h-2.7l-4.5,25.4
					L183.1,46.7L183.1,46.7z"/>
				<path d="M203.8,33h15.6l-1.2,6.3h-15.6L203.8,33z"/>
				<path d="M228.3,17.1l7.5-3.8h1.8l-7.3,41.5h-8.7L228.3,17.1z"/>
				<path d="M254.3,37.2c-1.3,1.7-3.2,3.3-6.5,3.3c-5.3,0-8.7-3.2-7.5-10l1-5.5c1.4-8.3,5.6-12.4,12.9-12.4c8,0,12.3,4,10.8,12.4
					l-3,16.9c-1.5,8.3-5.4,13.5-13.5,13.5c-8.1,0-11.5-4.2-10.3-10.6l0.2-1.6l7.3-0.5l-0.1,0.7c-0.5,2.6,0.4,4.2,2.9,4.2
					c2.6,0,4.3-2.1,4.9-5.6L254.3,37.2z M256.3,25.2c0.5-3.1-0.4-4.9-2.9-4.9c-2.6,0-4.1,1.8-4.7,4.9l-0.7,4.2
					c-0.5,2.9,0.3,4.9,2.9,4.9c2.6,0,4.2-2,4.6-4.9L256.3,25.2z"/>
			</g>
		</g>
	</g>
</g>
<g>
	<path class="st0" d="M409.7,95.2c-1.9,1.7-4.2,2.6-7.2,2.6c-2.7,0-4.8-1-6.1-2.7l4.3-3.5c0.4,0.8,1.4,1.5,2.7,1.5
		c2.2,0,4-1.5,4.6-4.4l4.4-24.9h5.3l-4.4,24.9C412.7,91.3,411.5,93.6,409.7,95.2z"/>
	<path class="st0" d="M430.1,97.4l-0.2-6.7h-7.8l-2.5,6.7H414l14.2-33.6h5.1l2.2,33.6H430.1z M429.4,71.9L424,86h5.8L429.4,71.9z"/>
	<path class="st0" d="M449.1,84.3h-3.2l-2.3,13.1h-5.3l5.9-33.6h8.5c6.1,0,8.1,3.2,6.8,10.2C458.3,80.8,455.4,84.3,449.1,84.3z
		 M451.9,68.6h-3.3l-1.9,11h3.3c2.8,0,3.7-2.5,4.2-5.5C454.7,71.1,454.8,68.6,451.9,68.6z"/>
	<path class="st0" d="M470.2,97.4l-0.2-6.7h-7.8l-2.5,6.7h-5.6l14.2-33.6h5.1l2.2,33.6H470.2z M469.5,71.9L464.1,86h5.8L469.5,71.9z
		"/>
	<path class="st0" d="M491.6,97.4l-4.4-20l-3.5,20h-5.3l5.9-33.6h4.7l4.4,20l3.5-20h5.3l-5.9,33.6H491.6z"/>
</g>
</svg>
